<svg id="visual" viewBox="0 0 900 450" width="900" height="450" xmlns="http://www.w3.org/2000/svg" xmlns:xlink="http://www.w3.org/1999/xlink" version="1.1"><rect x="0" y="0" width="900" height="450" fill="#464646"></rect><path d="M0 428L13.7 417.8C27.3 407.7 54.7 387.3 82 380C109.3 372.7 136.7 378.3 163.8 388.8C191 399.3 218 414.7 245.2 421.5C272.3 428.3 299.7 426.7 327 412.2C354.3 397.7 381.7 370.3 409 361.7C436.3 353 463.7 363 491 373.5C518.3 384 545.7 395 573 391.5C600.3 388 627.7 370 654.8 351C682 332 709 312 736.2 309.5C763.3 307 790.7 322 818 336.2C845.3 350.3 872.7 363.7 886.3 370.3L900 377L900 451L886.3 451C872.7 451 845.3 451 818 451C790.7 451 763.3 451 736.2 451C709 451 682 451 654.8 451C627.7 451 600.3 451 573 451C545.7 451 518.3 451 491 451C463.7 451 436.3 451 409 451C381.7 451 354.3 451 327 451C299.7 451 272.3 451 245.2 451C218 451 191 451 163.8 451C136.7 451 109.3 451 82 451C54.7 451 27.3 451 13.7 451L0 451Z" fill="#db4040" stroke-linecap="round" stroke-linejoin="miter"></path></svg>